{
  "accessors": [
    {
      "bufferView": 2,
      "componentType": 5126,
      "count": 1067,
      "max": [
        0.2894986867904663,
        0.017409002408385277,
        0.05449918657541275
      ],
      "min": [
        -0.20891441404819489,
        -0.014722192659974098,
        -0.07074495404958725
      ],
      "type": "VEC3"
    },
    {
      "bufferView": 2,
      "byteOffset": 12804,
      "componentType": 5126,
      "count": 1067,
      "max": [
        0.9999551773071289,
        0.9997057318687439,
        0.9938217997550964
      ],
      "min": [
        -0.9999098181724548,
        -0.9995999932289124,
        -0.998403787612915
      ],
      "type": "VEC3"
    },
    {
      "bufferView": 1,
      "componentType": 5126,
      "count": 1067,
      "max": [
        0.9990234375,
        0.9951171875
      ],
      "min": [
        0.0079803466796875,
        0.0018110275268554688
      ],
      "type": "VEC2"
    },
    {
      "bufferView": 0,
      "componentType": 5125,
      "count": 2109,
      "type": "SCALAR"
    }
  ],
  "asset": {
    "extras": {
      "author": "sxnneh (https://sketchfab.com/Sxnneh)",
      "license": "CC-BY-4.0 (http://creativecommons.org/licenses/by/4.0/)",
      "source": "https://sketchfab.com/3d-models/parafal-cb9d4131dcd847b6a550b16252d6dff1",
      "title": "Parafal"
    },
    "generator": "Sketchfab-16.61.0",
    "version": "2.0"
  },
  "bufferViews": [
    {
      "buffer": 0,
      "byteLength": 8436,
      "name": "floatBufferViews",
      "target": 34963
    },
    {
      "buffer": 0,
      "byteLength": 8536,
      "byteOffset": 8436,
      "byteStride": 8,
      "name": "floatBufferViews",
      "target": 34962
    },
    {
      "buffer": 0,
      "byteLength": 25608,
      "byteOffset": 16972,
      "byteStride": 12,
      "name": "floatBufferViews",
      "target": 34962
    }
  ],
  "buffers": [
    {
      "byteLength": 42580,
      "uri": "scene.bin"
    }
  ],
  "images": [
    {
      "uri": "textures/3P_PW_FAL_D_baseColor.png"
    }
  ],
  "materials": [
    {
      "doubleSided": true,
      "name": "3P_PW_FAL_D",
      "pbrMetallicRoughness": {
        "baseColorTexture": {
          "index": 0
        },
        "metallicFactor": 0.0,
        "roughnessFactor": 0.8308205978495098
      }
    }
  ],
  "meshes": [
    {
      "name": "Model_3P_PW_FAL_D_0",
      "primitives": [
        {
          "attributes": {
            "NORMAL": 1,
            "POSITION": 0,
            "TEXCOORD_0": 2
          },
          "indices": 3,
          "material": 0,
          "mode": 4
        }
      ]
    }
  ],
  "nodes": [
    {
      "children": [
        1
      ],
      "matrix": [
        1.0,
        0.0,
        0.0,
        0.0,
        0.0,
        2.220446049250313e-16,
        -1.0,
        0.0,
        0.0,
        1.0,
        2.220446049250313e-16,
        0.0,
        0.0,
        0.0,
        0.0,
        1.0
      ],
      "name": "Sketchfab_model"
    },
    {
      "children": [
        2
      ],
      "matrix": [
        0.009999999776482582,
        0.0,
        0.0,
        0.0,
        0.0,
        0.0,
        0.009999999776482582,
        0.0,
        0.0,
        -0.009999999776482582,
        0.0,
        0.0,
        0.0,
        0.0,
        0.0,
        1.0
      ],
      "name": "e795c3a54f084df9a369097297c20648.fbx"
    },
    {
      "children": [
        3
      ],
      "name": "RootNode"
    },
    {
      "children": [
        4
      ],
      "matrix": [
        99.2348597124581,
        -12.342718608387305,
        0.31609366164122715,
        0.0,
        -4.4592479766371754e-06,
        -2.5601693813295987,
        -99.96722992369973,
        0.0,
        12.346764539256569,
        99.20232522204377,
        -2.5405806566942837,
        0.0,
        0.19410736858844757,
        3.3978123664855957,
        -1.463430404663086,
        1.0
      ],
      "name": "Model"
    },
    {
      "mesh": 0,
      "name": "Model_3P_PW_FAL_D_0"
    }
  ],
  "samplers": [
    {
      "magFilter": 9729,
      "minFilter": 9987,
      "wrapS": 10497,
      "wrapT": 10497
    }
  ],
  "scene": 0,
  "scenes": [
    {
      "name": "Sketchfab_Scene",
      "nodes": [
        0
      ]
    }
  ],
  "textures": [
    {
      "sampler": 0,
      "source": 0
    }
  ]
}
