{
  "accessors": [
    {
      "bufferView": 2,
      "componentType": 5126,
      "count": 3392,
      "max": [
        0.2777406573295593,
        0.22428613901138306,
        0.016868382692337036
      ],
      "min": [
        -0.2762759327888489,
        0.11489087343215942,
        -0.021582424640655518
      ],
      "type": "VEC3"
    },
    {
      "bufferView": 2,
      "byteOffset": 40704,
      "componentType": 5126,
      "count": 3392,
      "max": [
        0.9998742341995239,
        0.999874472618103,
        0.9997486472129822
      ],
      "min": [
        -0.9998742938041687,
        -0.9998849034309387,
        -0.9997488260269165
      ],
      "type": "VEC3"
    },
    {
      "bufferView": 3,
      "componentType": 5126,
      "count": 3392,
      "max": [
        1.0,
        0.9998743534088135,
        1.0,
        1.0
      ],
      "min": [
        -0.9998749494552612,
        -0.999874472618103,
        -1.0,
        -1.0
      ],
      "type": "VEC4"
    },
    {
      "bufferView": 1,
      "componentType": 5126,
      "count": 3392,
      "max": [
        1.0012166500091553,
        0.9973028898239136
      ],
      "min": [
        0.003215227508917451,
        0.007128958590328693
      ],
      "type": "VEC2"
    },
    {
      "bufferView": 1,
      "byteOffset": 27136,
      "componentType": 5126,
      "count": 3392,
      "max": [
        1.0012166500091553,
        0.9973028898239136
      ],
      "min": [
        0.003215227508917451,
        0.007128958590328693
      ],
      "type": "VEC2"
    },
    {
      "bufferView": 0,
      "componentType": 5125,
      "count": 8898,
      "type": "SCALAR"
    }
  ],
  "asset": {
    "extras": {
      "author": "sxnneh (https://sketchfab.com/Sxnneh)",
      "license": "CC-BY-4.0 (http://creativecommons.org/licenses/by/4.0/)",
      "source": "https://sketchfab.com/3d-models/awm-8db7797f63e64a50bf0479e6128d61f8",
      "title": "Awm"
    },
    "generator": "Sketchfab-16.61.0",
    "version": "2.0"
  },
  "bufferViews": [
    {
      "buffer": 0,
      "byteLength": 35592,
      "name": "floatBufferViews",
      "target": 34963
    },
    {
      "buffer": 0,
      "byteLength": 54272,
      "byteOffset": 35592,
      "byteStride": 8,
      "name": "floatBufferViews",
      "target": 34962
    },
    {
      "buffer": 0,
      "byteLength": 81408,
      "byteOffset": 89864,
      "byteStride": 12,
      "name": "floatBufferViews",
      "target": 34962
    },
    {
      "buffer": 0,
      "byteLength": 54272,
      "byteOffset": 171272,
      "byteStride": 16,
      "name": "floatBufferViews",
      "target": 34962
    }
  ],
  "buffers": [
    {
      "byteLength": 225544,
      "uri": "scene.bin"
    }
  ],
  "images": [
    {
      "uri": "textures/Preview_AWM_D_baseColor.png"
    },
    {
      "uri": "textures/Preview_AWM_D_normal.png"
    }
  ],
  "materials": [
    {
      "doubleSided": true,
      "name": "Preview_AWM_D",
      "normalTexture": {
        "index": 1,
        "texCoord": 1
      },
      "pbrMetallicRoughness": {
        "baseColorTexture": {
          "index": 0
        },
        "metallicFactor": 0.0,
        "roughnessFactor": 0.9268247024617045
      }
    }
  ],
  "meshes": [
    {
      "name": "Model_Preview_AWM_D_0",
      "primitives": [
        {
          "attributes": {
            "NORMAL": 1,
            "POSITION": 0,
            "TANGENT": 2,
            "TEXCOORD_0": 3,
            "TEXCOORD_1": 4
          },
          "indices": 5,
          "material": 0,
          "mode": 4
        }
      ]
    }
  ],
  "nodes": [
    {
      "children": [
        1
      ],
      "matrix": [
        1.0,
        0.0,
        0.0,
        0.0,
        0.0,
        2.220446049250313e-16,
        -1.0,
        0.0,
        0.0,
        1.0,
        2.220446049250313e-16,
        0.0,
        0.0,
        0.0,
        0.0,
        1.0
      ],
      "name": "Sketchfab_model"
    },
    {
      "children": [
        2
      ],
      "matrix": [
        0.009999999776482582,
        0.0,
        0.0,
        0.0,
        0.0,
        0.0,
        0.009999999776482582,
        0.0,
        0.0,
        -0.009999999776482582,
        0.0,
        0.0,
        0.0,
        0.0,
        0.0,
        1.0
      ],
      "name": "f5a2612d1176433c8f39ed1fbbcf81cb.fbx"
    },
    {
      "children": [
        3
      ],
      "name": "RootNode"
    },
    {
      "children": [
        4
      ],
      "matrix": [
        1034.4072265625,
        0.0,
        0.0,
        0.0,
        0.0,
        1034.4072265624989,
        4.521537592688113e-05,
        0.0,
        0.0,
        -4.521537592688113e-05,
        1034.4072265624989,
        0.0,
        0.0,
        -123.23767852783203,
        0.0,
        1.0
      ],
      "name": "Model"
    },
    {
      "mesh": 0,
      "name": "Model_Preview_AWM_D_0"
    }
  ],
  "samplers": [
    {
      "magFilter": 9729,
      "minFilter": 9987,
      "wrapS": 10497,
      "wrapT": 10497
    }
  ],
  "scene": 0,
  "scenes": [
    {
      "name": "Sketchfab_Scene",
      "nodes": [
        0
      ]
    }
  ],
  "textures": [
    {
      "sampler": 0,
      "source": 0
    },
    {
      "sampler": 0,
      "source": 1
    }
  ]
}
